<?xml version="1.0" standalone="no"?>
<!DOCTYPE svg PUBLIC "-//W3C//DTD SVG 20010904//EN" "http://www.w3.org/TR/2001/REC-SVG-20010904/DTD/svg10.dtd">
<svg version="1.0" xmlns="http://www.w3.org/2000/svg" width="1080.000000pt" height="1080.000000pt"
    viewBox="0 0 1080.000000 1080.000000" preserveAspectRatio="xMidYMid meet">

    <g transform="translate(0.000000,1080.000000) scale(0.100000,-0.100000)" fill="#fff" stroke="none">
        <path d="M5523 9502 c-12 -7 -25 -52 -45 -147 -6 -27 -14 -59 -19 -70 -7 -18
-59 -220 -59 -230 0 -3 -4 -5 -9 -5 -5 0 -17 22 -26 50 -9 27 -21 52 -26 55
-5 4 -9 13 -9 21 0 9 -15 52 -34 97 -19 45 -45 110 -58 144 l-23 63 -56 0
c-30 0 -62 -6 -71 -12 -8 -7 -25 -53 -37 -103 -12 -49 -28 -112 -36 -140 -8
-27 -21 -77 -30 -110 -28 -106 -25 -99 -40 -78 -6 10 -18 36 -25 58 -7 22 -22
63 -35 90 -26 60 -73 177 -91 225 -11 32 -16 35 -55 38 -24 2 -58 1 -76 -3
-32 -6 -32 -6 -18 -38 24 -54 111 -267 150 -367 21 -52 43 -108 50 -125 7 -16
18 -45 26 -64 l12 -33 66 6 c36 4 72 13 79 20 14 14 44 110 64 206 6 30 15 60
19 65 4 6 11 35 15 65 4 30 12 63 18 72 10 14 14 11 32 -25 12 -23 45 -103 74
-177 29 -74 59 -150 68 -168 l15 -34 66 7 c78 8 89 15 96 64 4 20 10 45 15 56
14 32 90 344 90 368 0 13 4 27 9 33 5 5 16 37 24 72 l14 62 -56 0 c-31 0 -61
-4 -68 -8z" />
        <path d="M6442 9353 c-91 -256 -122 -343 -128 -367 -4 -16 -13 -41 -20 -55 -8
-14 -14 -35 -14 -46 0 -12 -4 -25 -10 -31 -5 -5 -16 -30 -24 -56 l-13 -46 56
-22 c56 -21 56 -21 69 -1 13 19 15 19 44 -15 49 -55 95 -74 183 -74 94 0 145
26 191 97 60 93 67 195 18 279 -44 78 -169 136 -243 114 -19 -5 -37 -8 -39 -5
-2 2 12 50 32 106 20 57 33 106 29 109 -12 11 -92 40 -107 40 -8 0 -18 -12
-24 -27z m216 -368 c32 -34 34 -41 30 -90 -5 -63 -35 -108 -89 -136 -39 -20
-40 -20 -84 0 -85 38 -109 134 -54 216 29 42 60 56 119 51 36 -3 51 -11 78
-41z" />
        <path d="M5895 9285 c-62 -19 -106 -50 -137 -96 -49 -73 -60 -144 -33 -218 47
-133 195 -200 365 -165 36 8 46 14 48 32 2 13 -4 34 -12 47 -15 24 -20 24 -89
19 -87 -8 -132 8 -171 59 -29 37 -27 72 4 62 9 -3 46 -10 81 -15 35 -5 105
-15 154 -23 62 -11 94 -12 103 -5 13 12 15 69 3 141 -12 75 -80 138 -176 162
-65 17 -86 17 -140 0z m144 -110 c34 -17 71 -72 64 -93 -5 -11 -20 -12 -77 -7
-74 7 -145 23 -160 36 -5 5 7 24 27 44 29 29 42 35 76 35 23 0 55 -7 70 -15z" />
        <path d="M7220 9034 c-47 -42 -164 -152 -260 -243 -96 -92 -201 -191 -232
-220 -32 -30 -58 -60 -58 -68 0 -7 20 -23 44 -35 l45 -21 43 38 c24 21 95 88
158 149 63 61 193 183 288 270 94 87 172 160 172 162 0 8 -81 44 -97 44 -10 0
-57 -34 -103 -76z" />
        <path d="M3747 8941 c-19 -21 -38 -48 -42 -60 -8 -26 -17 -27 -33 -1 -12 20
-13 20 -61 -5 -27 -13 -52 -29 -55 -34 -6 -8 16 -53 121 -251 72 -134 94 -170
106 -170 23 0 92 46 95 63 2 9 -22 64 -52 122 -45 84 -56 114 -56 151 0 42 4
51 40 85 22 21 40 47 40 58 0 20 -45 81 -60 81 -4 0 -23 -18 -43 -39z" />
        <path d="M7429 8878 c-30 -42 -115 -154 -279 -363 -38 -49 -70 -97 -70 -107 0
-19 77 -79 94 -72 6 3 34 35 61 71 99 130 160 203 163 195 3 -10 -14 -201 -26
-285 -7 -53 -6 -60 12 -73 31 -22 49 -18 195 40 162 64 171 67 171 60 0 -7
-60 -93 -78 -112 -15 -16 -125 -161 -135 -178 -3 -6 16 -28 44 -49 43 -32 52
-36 63 -24 7 8 82 104 166 214 84 110 164 213 177 228 12 16 23 33 23 39 0 12
-70 78 -83 78 -5 0 -48 -16 -95 -36 -48 -20 -109 -45 -137 -56 -27 -10 -59
-23 -70 -28 -42 -19 -124 -48 -128 -44 -2 2 0 32 5 66 4 35 12 108 18 163 5
55 15 128 20 163 l11 63 -32 27 c-66 56 -65 55 -90 20z" />
        <path d="M4286 8819 c-36 -29 -37 -89 0 -126 22 -22 32 -25 67 -20 50 7 67 28
67 83 0 34 -5 47 -26 63 -15 12 -39 21 -54 21 -15 0 -39 -9 -54 -21z" />
        <path d="M3293 8674 c-59 -21 -132 -89 -159 -149 -33 -70 -31 -127 7 -204 63
-126 180 -170 316 -119 73 27 166 116 182 173 12 46 9 50 -42 58 -36 6 -40 4
-69 -38 -45 -64 -96 -95 -157 -95 -32 0 -53 5 -62 16 -16 19 -22 13 125 119
54 39 113 82 133 97 l35 28 -54 53 c-78 76 -158 95 -255 61z m121 -104 c14 -5
26 -15 26 -22 -1 -13 -153 -132 -184 -144 -19 -7 -31 33 -22 79 6 32 45 79 76
90 25 9 77 8 104 -3z" />
        <path d="M2855 8304 c-70 -26 -145 -119 -145 -181 0 -27 -3 -28 -30 -10 -18
11 -24 8 -55 -28 -19 -22 -34 -45 -35 -51 0 -11 165 -177 375 -377 l90 -86 33
32 c63 60 63 61 -23 147 l-77 78 33 7 c133 29 217 196 160 320 -23 52 -110
135 -158 152 -49 16 -117 15 -168 -3z m131 -133 c51 -31 84 -82 84 -129 0 -34
-7 -48 -38 -82 -33 -34 -45 -40 -81 -40 -87 0 -151 62 -151 147 0 41 5 54 28
75 57 53 105 62 158 29z" />
        <path d="M7944 8130 c-58 -8 -126 -63 -158 -126 -62 -122 -12 -267 124 -358
18 -12 48 -16 118 -16 105 0 119 5 180 64 76 73 92 197 37 292 -29 49 -118
132 -149 139 -41 8 -111 11 -152 5z m146 -135 c70 -36 84 -139 28 -201 -30
-34 -92 -57 -131 -50 -47 9 -97 63 -103 112 -13 107 109 189 206 139z" />
        <path d="M2494 7831 c-116 -30 -208 -153 -207 -278 1 -117 72 -207 188 -238
54 -14 64 -13 117 1 164 46 258 251 179 389 -16 28 -37 57 -47 67 -57 50 -161
77 -230 59z m129 -158 c92 -64 63 -212 -46 -230 -53 -8 -83 3 -133 49 -38 35
-44 46 -44 81 0 28 8 51 26 75 51 66 123 75 197 25z" />
        <path d="M8570 7787 c-25 -12 -117 -65 -205 -117 -88 -51 -199 -116 -247 -143
l-87 -51 21 -35 c27 -47 55 -71 73 -64 12 4 15 -5 15 -41 0 -56 34 -128 82
-172 34 -32 112 -64 157 -64 38 0 127 35 167 65 129 99 121 301 -15 385 -22
14 -41 28 -41 31 0 3 10 11 23 17 75 39 143 82 151 95 10 16 -3 57 -32 95
l-18 23 -44 -24z m-94 -321 c30 -30 34 -40 34 -84 0 -59 -29 -101 -91 -132
-48 -25 -60 -25 -107 -1 -77 40 -96 133 -40 197 39 44 58 53 122 53 42 1 52
-3 82 -33z" />
        <path d="M1946 7403 c-14 -29 -26 -57 -26 -62 0 -11 525 -280 575 -295 16 -4
25 3 43 34 40 70 39 71 -135 159 -87 43 -219 110 -294 148 l-136 70 -27 -54z" />
        <path d="M8910 7222 c-27 -8 -60 -45 -60 -66 0 -12 11 -38 25 -59 21 -30 32
-37 59 -37 39 0 76 34 76 71 0 55 -55 105 -100 91z" />
        <path d="M8736 7131 c-3 -4 -19 -11 -35 -14 -16 -3 -58 -19 -93 -35 -96 -44
-235 -102 -246 -102 -5 0 -16 -8 -26 -19 -15 -17 -15 -21 3 -65 11 -25 27 -49
34 -52 12 -4 110 34 317 124 25 11 59 25 77 32 43 16 46 32 21 90 -20 47 -40
62 -52 41z" />
        <path d="M2082 7061 c-97 -34 -156 -115 -168 -228 -12 -109 40 -200 141 -247
99 -48 205 -28 277 52 58 65 89 140 90 222 0 89 -21 108 -87 78 -24 -11 -26
-16 -21 -49 7 -47 -17 -129 -46 -157 -13 -11 -40 -28 -61 -37 -34 -14 -38 -14
-44 0 -3 9 0 28 7 43 7 15 16 38 20 52 4 14 26 76 49 138 l41 113 -34 14 c-57
24 -107 26 -164 6z m78 -135 c0 -14 -4 -27 -8 -30 -5 -3 -22 -44 -37 -91 -16
-47 -34 -85 -40 -85 -18 0 -45 34 -55 71 -21 74 33 159 102 159 34 0 38 -3 38
-24z" />
        <path d="M8820 6859 c-113 -39 -218 -74 -235 -78 -71 -20 -165 -53 -170 -62
-4 -5 3 -35 15 -67 l21 -58 302 99 c166 54 308 101 316 103 25 8 -10 136 -37
133 -4 0 -99 -32 -212 -70z" />
        <path d="M1826 6578 c-14 -70 -15 -95 -4 -110 7 -9 73 -55 147 -103 91 -60
129 -90 120 -95 -8 -4 -36 -12 -64 -18 -27 -6 -70 -16 -95 -23 -25 -6 -71 -15
-103 -20 -33 -5 -62 -11 -67 -14 -9 -5 -35 -124 -28 -130 5 -5 115 16 169 33
19 6 61 15 94 20 99 17 218 43 236 52 21 12 41 124 25 144 -8 10 -334 230
-413 279 -8 5 -14 0 -17 -15z" />
        <path d="M8654 6561 c-46 -21 -104 -88 -122 -142 -16 -47 -15 -133 2 -190 18
-58 59 -125 86 -139 17 -9 24 -5 49 31 l30 41 -29 31 c-32 35 -46 94 -37 154
6 36 41 83 62 83 13 0 31 -63 46 -155 8 -57 25 -139 36 -177 7 -27 59 -22 118
10 163 89 163 333 0 440 -45 29 -57 32 -125 32 -51 0 -88 -6 -116 -19z m221
-137 c33 -36 47 -91 35 -133 -18 -62 -68 -94 -85 -53 -7 16 -34 172 -35 200 0
23 60 14 85 -14z" />
        <path d="M1865 5974 c-47 -17 -108 -74 -131 -122 -19 -41 -22 -179 -5 -225 16
-43 104 -123 143 -131 77 -16 111 -18 155 -6 111 27 183 134 183 270 0 81 -40
180 -72 180 -5 0 -25 -12 -43 -26 l-34 -26 19 -36 c28 -51 27 -134 -1 -179
-25 -40 -68 -61 -81 -41 -4 7 -8 91 -8 186 l0 172 -42 -1 c-24 0 -61 -7 -83
-15z m55 -236 l0 -120 -27 7 c-39 9 -61 32 -75 77 -17 57 2 112 50 142 20 13
40 22 45 19 4 -2 7 -58 7 -125z" />
        <path d="M8611 5726 c-6 -7 -16 -89 -22 -182 -11 -156 -11 -174 7 -231 37
-125 121 -202 242 -223 126 -21 249 24 310 112 51 75 61 123 88 424 l6 71
-139 7 c-76 4 -172 11 -213 16 -146 18 -267 20 -279 6z m359 -153 l135 -8 3
-51 c4 -73 -23 -192 -50 -221 -47 -50 -85 -66 -158 -65 -59 0 -75 4 -111 29
-24 16 -53 48 -67 73 -22 41 -23 54 -20 146 3 55 7 105 11 111 4 6 26 7 64 1
32 -4 119 -11 193 -15z" />
        <path d="M1859 5400 c-128 -23 -219 -120 -238 -255 -8 -59 -6 -81 31 -325 l13
-85 39 -3 c21 -2 60 4 87 12 26 9 64 16 84 16 20 0 68 6 108 14 40 8 92 17
117 21 25 3 78 13 118 22 81 18 82 21 62 110 -6 24 -15 75 -20 115 -25 174
-86 283 -189 336 -44 23 -146 34 -212 22z m186 -164 c51 -39 73 -77 91 -152
29 -125 28 -128 -2 -141 -16 -7 -42 -13 -58 -13 -17 0 -71 -7 -121 -16 -181
-32 -195 -33 -199 -10 -2 12 -11 55 -19 96 -14 69 -13 78 4 129 11 30 27 63
37 74 62 68 198 85 267 33z" />
        <path d="M8597 5000 c-94 -60 -146 -188 -127 -313 10 -66 21 -75 65 -54 l35
17 0 80 0 80 43 45 c54 56 97 63 97 16 0 -17 -4 -32 -8 -35 -13 -8 -76 -272
-69 -289 7 -18 93 -32 139 -22 117 26 198 133 198 263 -1 74 -25 126 -84 180
-59 54 -81 62 -170 62 -63 0 -78 -4 -119 -30z m236 -146 c32 -32 44 -84 27
-123 -22 -53 -90 -100 -119 -82 -12 8 -6 47 23 151 27 95 28 95 69 54z" />
        <path d="M2320 4444 l-20 -47 20 -14 c84 -59 116 -177 64 -234 -16 -18 -18
-18 -36 -3 -10 10 -18 23 -18 30 0 11 -98 228 -119 264 -21 36 -99 -9 -156
-89 -27 -39 -30 -50 -30 -119 1 -83 21 -137 74 -196 108 -120 323 -89 398 57
46 91 29 219 -41 311 -30 38 -89 86 -107 86 -4 0 -17 -21 -29 -46z m-114 -176
c93 -186 93 -188 32 -188 -36 0 -103 65 -111 108 -7 35 5 77 30 104 22 25 25
23 49 -24z" />
        <path d="M8316 4360 c-17 -37 -24 -65 -19 -74 4 -8 65 -74 134 -148 69 -73
143 -152 163 -175 21 -24 44 -43 51 -43 7 0 21 21 31 47 11 27 20 51 22 55 2
3 -52 64 -120 135 l-123 128 183 5 184 5 23 56 23 56 -52 7 c-28 3 -146 6
-262 6 l-211 0 -27 -60z" />
        <path d="M8214 4020 c-48 -11 -100 -47 -138 -93 -49 -62 -67 -105 -73 -174
l-6 -63 29 0 c52 0 74 11 79 39 12 59 29 98 54 125 44 48 125 73 137 42 3 -8
-38 -80 -91 -160 -107 -162 -107 -159 -34 -197 46 -23 144 -26 194 -5 82 34
165 160 165 250 0 101 -91 214 -190 235 -57 12 -80 12 -126 1z m196 -221 c20
-72 -16 -141 -83 -160 -30 -9 -87 -4 -87 7 0 3 29 50 65 104 71 109 87 117
105 49z" />
        <path d="M2600 3874 c-113 -74 -137 -86 -177 -86 -40 0 -78 23 -102 62 l-17
29 -52 -35 -52 -35 22 -30 c13 -16 44 -40 70 -52 47 -21 47 -22 28 -42 -18
-20 -18 -21 7 -62 29 -49 56 -55 101 -24 15 10 61 40 102 67 161 102 240 156
240 163 0 16 -60 101 -72 101 -7 0 -51 -25 -98 -56z" />
        <path d="M2784 3709 c-16 -17 -69 -63 -118 -102 -93 -74 -136 -137 -136 -200
0 -48 45 -129 102 -183 69 -66 96 -84 130 -84 22 0 31 7 43 36 8 20 15 38 15
40 0 1 -23 15 -50 30 -77 42 -118 105 -105 163 12 55 33 47 119 -42 65 -68 88
-86 119 -91 58 -11 92 1 133 46 34 38 36 44 32 93 -7 85 -83 176 -161 192 -20
4 -25 9 -18 16 19 19 12 42 -27 80 -21 20 -40 37 -43 37 -3 0 -18 -14 -35 -31z
m112 -181 c52 -36 68 -86 37 -120 -30 -33 -63 -23 -121 39 l-53 58 26 22 c33
29 70 29 111 1z" />
        <path d="M7836 3596 c-20 -24 -36 -46 -36 -49 0 -2 52 -48 116 -103 65 -54
168 -143 230 -196 62 -53 125 -105 140 -115 l27 -17 44 49 44 50 -38 30 c-20
17 -87 73 -149 125 -61 52 -122 104 -135 115 -13 10 -59 50 -103 87 -43 37
-84 68 -91 68 -7 0 -29 -20 -49 -44z" />
        <path d="M7643 3371 c-56 -26 -130 -95 -154 -145 -59 -121 -15 -258 105 -327
130 -74 303 -5 372 149 32 70 31 133 -2 200 -28 57 -89 112 -143 131 -51 17
-131 13 -178 -8z m136 -121 c79 -45 105 -141 56 -206 -54 -71 -145 -67 -209 8
-29 33 -36 50 -36 82 0 50 27 94 72 118 44 23 73 22 117 -2z" />
        <path d="M3115 3205 c-54 -36 -99 -65 -101 -65 -10 0 -194 -124 -194 -131 0
-13 63 -69 78 -69 7 0 25 9 40 19 40 28 160 104 214 135 l48 28 -14 -44 c-41
-132 -49 -156 -62 -186 -7 -18 -17 -49 -20 -70 -5 -35 -3 -41 26 -65 38 -32
68 -34 103 -7 14 11 28 20 32 20 4 0 44 24 88 53 45 30 92 59 105 66 22 12 23
11 18 -16 -6 -32 -62 -202 -83 -250 -20 -47 -17 -59 28 -94 40 -32 42 -32 56
-14 7 11 18 38 24 60 6 22 16 51 21 65 6 14 14 39 19 55 4 17 18 62 32 100 32
90 57 171 57 182 0 5 -23 26 -50 46 l-51 38 -61 -38 c-33 -21 -79 -48 -101
-61 -22 -12 -48 -28 -56 -36 -9 -7 -25 -17 -37 -20 -21 -6 -21 -5 -8 41 7 27
26 89 43 138 17 50 31 97 31 107 0 22 -72 78 -102 78 -13 0 -68 -29 -123 -65z" />
        <path d="M7168 3210 c-27 -17 -48 -34 -48 -38 0 -5 22 -41 49 -80 61 -88 70
-113 41 -105 -29 8 -96 -15 -142 -46 -68 -48 -116 -149 -103 -218 16 -87 89
-190 151 -213 14 -6 62 -10 107 -10 74 0 87 3 130 31 36 22 54 43 71 79 21 46
24 48 39 32 16 -15 20 -15 63 8 25 14 48 31 51 37 4 11 -25 61 -187 313 -14
21 -54 84 -89 139 -35 56 -69 101 -75 101 -6 0 -32 -14 -58 -30z m121 -338
c75 -37 102 -152 49 -209 -58 -64 -140 -63 -197 2 -57 65 -49 157 18 202 41
27 84 29 130 5z" />
        <path d="M3746 2856 c-9 -45 0 -63 35 -75 16 -5 34 -22 41 -36 10 -23 6 -37
-38 -126 -27 -56 -52 -103 -56 -105 -5 -3 -31 6 -58 20 l-51 25 -19 -32 c-11
-17 -20 -37 -20 -44 0 -14 53 -53 72 -53 27 0 27 -12 3 -61 -14 -27 -25 -52
-25 -56 0 -4 23 -21 51 -36 47 -27 51 -28 69 -12 10 9 23 29 30 45 11 25 16
28 53 27 36 -2 42 1 61 32 19 33 19 35 2 45 -49 30 -49 26 3 127 58 112 76
167 67 203 -15 62 -125 146 -191 146 -18 0 -24 -7 -29 -34z" />
        <path d="M6592 2700 c-60 -31 -132 -98 -132 -124 0 -19 22 -35 58 -42 26 -5
36 -1 66 29 42 42 94 61 148 54 36 -5 78 -30 78 -47 0 -4 -35 -22 -77 -40
-218 -92 -248 -107 -251 -120 -4 -25 61 -113 108 -145 40 -27 53 -30 120 -30
117 1 204 55 249 155 24 53 27 133 6 174 -8 15 -15 34 -15 41 0 19 -81 96
-117 111 -18 8 -66 14 -106 14 -62 0 -83 -5 -135 -30z m257 -219 c28 -52 -40
-138 -116 -148 -32 -4 -44 1 -73 26 l-35 31 25 20 c14 11 32 20 40 20 11 1
128 55 147 68 1 1 7 -6 12 -17z" />
        <path d="M4171 2648 c-39 -87 -81 -191 -81 -199 0 -22 -36 -89 -48 -89 -7 0
-29 7 -49 15 -51 22 -60 19 -73 -20 -15 -44 -4 -60 58 -86 47 -20 47 -33 3
-73 -19 -17 -26 -18 -61 -7 -21 6 -42 16 -45 21 -3 5 -20 -6 -36 -25 -25 -28
-28 -38 -20 -54 17 -31 99 -65 157 -65 62 0 113 33 145 96 20 40 26 42 71 23
12 -5 21 3 34 32 9 21 19 41 21 45 2 4 -11 15 -29 24 -18 9 -34 18 -36 19 -1
1 27 75 63 165 36 89 65 166 65 171 0 9 -56 35 -97 45 -19 5 -25 -1 -42 -38z" />
        <path d="M6267 2584 c-26 -8 -51 -22 -54 -30 -6 -16 15 -105 49 -207 l19 -58
-23 -41 c-16 -27 -38 -48 -71 -64 -50 -26 -52 -31 -26 -101 14 -38 53 -29 108
22 l49 46 6 -27 c6 -23 11 -26 38 -20 16 3 42 12 57 19 31 15 32 45 8 129 -16
55 -29 100 -69 252 -12 49 -27 91 -33 92 -5 1 -32 -4 -58 -12z" />
        <path d="M4509 2561 c-55 -11 -123 -66 -155 -124 -24 -44 -29 -63 -28 -122 1
-110 51 -181 164 -230 62 -28 171 -27 225 2 82 43 130 113 141 206 11 97 -54
203 -152 246 -51 23 -142 33 -195 22z m137 -120 c69 -32 91 -107 55 -188 -23
-49 -62 -73 -122 -73 -35 0 -48 6 -80 39 -32 32 -39 46 -39 79 0 71 34 129 90
151 36 14 50 13 96 -8z" />
        <path d="M5049 2466 c-56 -17 -109 -64 -130 -113 -24 -57 -24 -77 2 -129 25
-52 62 -75 189 -120 143 -51 174 -83 131 -135 -18 -22 -27 -24 -103 -24 -67 0
-92 5 -131 24 -53 26 -58 24 -80 -30 -20 -49 -9 -63 71 -90 91 -30 218 -31
282 -3 85 39 130 116 117 199 -13 80 -72 121 -257 177 -85 25 -116 82 -69 124
17 15 36 19 98 18 64 -1 86 -6 140 -33 34 -17 67 -31 71 -31 12 0 50 64 50 83
0 9 -19 27 -42 41 -84 49 -253 70 -339 42z" />
        <path d="M5639 2451 c-33 -33 -35 -50 -14 -90 20 -40 66 -57 105 -41 37 15 64
62 54 93 -21 70 -94 89 -145 38z" />
    </g>
</svg>